<?xml version="1.0" encoding="UTF-8"?>
<svg xmlns="http://www.w3.org/2000/svg" xmlns:xlink="http://www.w3.org/1999/xlink" width="150pt" height="150pt" viewBox="0 0 150 150" version="1.1">
<g id="surface1">
<path style=" stroke:none;fill-rule:nonzero;fill:rgb(100%,57.254902%,41.176471%);fill-opacity:1;" d="M 31.117188 32.164062 C 31.117188 28.0625 27.789062 24.734375 23.683594 24.734375 C 19.582031 24.734375 16.253906 28.0625 16.253906 32.164062 C 16.253906 32.164062 16.261719 41.355469 16.261719 41.355469 C 16.261719 41.375 16.292969 79.367188 16.292969 79.367188 L 31.117188 79.367188 Z M 31.117188 32.164062 "/>
<path style=" stroke:none;fill-rule:nonzero;fill:rgb(100%,69.019608%,50.980392%);fill-opacity:1;" d="M 68.617188 113.148438 L 68.617188 147.605469 L 59.042969 147.59375 L 49.46875 95.8125 Z M 68.617188 113.148438 "/>
<path style=" stroke:none;fill-rule:nonzero;fill:rgb(100%,80.392157%,61.176471%);fill-opacity:1;" d="M 59.042969 105.386719 L 59.042969 147.59375 L 38.617188 147.566406 L 38.617188 138.546875 C 38.617188 136.847656 37.9375 134.25 37.105469 132.773438 L 7.59375 85.136719 C 6.761719 83.660156 6.078125 81.0625 6.078125 79.367188 L 6.039062 32.164062 C 6.039062 28.058594 9.367188 24.730469 13.472656 24.730469 C 17.574219 24.730469 20.902344 28.058594 20.902344 32.164062 L 20.902344 74.46875 Z M 59.042969 105.386719 "/>
<path style=" stroke:none;fill-rule:nonzero;fill:rgb(100%,57.254902%,41.176471%);fill-opacity:1;" d="M 62.074219 97.351562 L 53.464844 88.84375 L 59.042969 135.585938 C 61.964844 136.949219 65.214844 137.710938 68.617188 137.710938 L 68.617188 113.148438 C 68.617188 108.058594 65.675781 100.949219 62.074219 97.351562 Z M 62.074219 97.351562 "/>
<path style=" stroke:none;fill-rule:nonzero;fill:rgb(100%,69.019608%,50.980392%);fill-opacity:1;" d="M 59.042969 103.574219 L 59.042969 135.585938 C 51.371094 132.015625 45.949219 124.3125 45.949219 115.386719 L 45.949219 102.59375 L 23.082031 79.722656 C 20.179688 76.820312 20.179688 72.113281 23.082031 69.214844 C 25.984375 66.308594 30.6875 66.308594 33.59375 69.214844 L 53.464844 88.84375 C 56.609375 92.652344 59.042969 98.945312 59.042969 103.574219 Z M 59.042969 103.574219 "/>
<path style=" stroke:none;fill-rule:nonzero;fill:rgb(100%,57.254902%,41.176471%);fill-opacity:1;" d="M 118.882812 32.164062 C 118.882812 28.0625 122.210938 24.734375 126.316406 24.734375 C 130.417969 24.734375 133.746094 28.0625 133.746094 32.164062 C 133.746094 32.164062 133.738281 41.355469 133.738281 41.355469 C 133.738281 41.375 133.707031 79.367188 133.707031 79.367188 L 118.882812 79.367188 Z M 118.882812 32.164062 "/>
<path style=" stroke:none;fill-rule:nonzero;fill:rgb(100%,80.392157%,61.176471%);fill-opacity:1;" d="M 129.09375 74.46875 L 129.09375 32.164062 C 129.09375 28.0625 132.421875 24.730469 136.527344 24.730469 C 140.632812 24.730469 143.960938 28.0625 143.960938 32.164062 L 143.917969 79.367188 C 143.917969 81.058594 143.234375 83.660156 142.40625 85.136719 L 112.894531 132.773438 C 112.0625 134.25 111.382812 136.847656 111.382812 138.546875 L 111.382812 147.566406 L 81.382812 147.605469 L 81.382812 113.148438 Z M 129.09375 74.46875 "/>
<path style=" stroke:none;fill-rule:nonzero;fill:rgb(100%,69.019608%,50.980392%);fill-opacity:1;" d="M 87.925781 97.351562 L 116.40625 69.214844 C 119.3125 66.308594 124.015625 66.308594 126.917969 69.214844 C 129.820312 72.117188 129.820312 76.820312 126.917969 79.722656 L 104.050781 102.59375 L 104.050781 115.386719 C 104.050781 127.714844 93.710938 137.710938 81.382812 137.710938 L 81.382812 113.144531 C 81.382812 108.058594 84.328125 100.949219 87.925781 97.351562 Z M 87.925781 97.351562 "/>
<path style=" stroke:none;fill-rule:nonzero;fill:rgb(18.431373%,36.862745%,53.333333%);fill-opacity:1;" d="M 90.160156 8.777344 L 106.117188 8.777344 L 106.117188 53.457031 L 90.160156 53.457031 Z M 90.160156 8.777344 "/>
<path style=" stroke:none;fill-rule:nonzero;fill:rgb(21.176471%,45.882353%,58.823529%);fill-opacity:1;" d="M 43.882812 8.777344 L 96.542969 8.777344 L 96.542969 53.457031 L 43.882812 53.457031 Z M 43.882812 8.777344 "/>
<path style=" stroke:none;fill-rule:nonzero;fill:rgb(53.333333%,67.45098%,70.980392%);fill-opacity:1;" d="M 99.734375 47.074219 L 93.351562 53.457031 L 99.734375 59.839844 L 109.308594 59.839844 L 109.308594 47.074219 Z M 99.734375 47.074219 "/>
<path style=" stroke:none;fill-rule:nonzero;fill:rgb(65.490196%,79.607843%,81.176471%);fill-opacity:1;" d="M 40.691406 47.074219 L 99.734375 47.074219 L 99.734375 59.839844 L 40.691406 59.839844 Z M 40.691406 47.074219 "/>
<path style=" stroke:none;fill-rule:nonzero;fill:rgb(53.333333%,67.45098%,70.980392%);fill-opacity:1;" d="M 99.734375 2.394531 L 93.351562 8.777344 L 99.734375 15.160156 L 109.308594 15.160156 L 109.308594 2.394531 Z M 99.734375 2.394531 "/>
<path style=" stroke:none;fill-rule:nonzero;fill:rgb(65.490196%,79.607843%,81.176471%);fill-opacity:1;" d="M 40.691406 2.394531 L 99.734375 2.394531 L 99.734375 15.160156 L 40.691406 15.160156 Z M 40.691406 2.394531 "/>
<path style=" stroke:none;fill-rule:nonzero;fill:rgb(53.333333%,67.45098%,70.980392%);fill-opacity:1;" d="M 99.734375 24.734375 L 93.351562 31.117188 L 99.734375 37.5 L 109.308594 37.5 L 109.308594 24.734375 Z M 99.734375 24.734375 "/>
<path style=" stroke:none;fill-rule:nonzero;fill:rgb(65.490196%,79.607843%,81.176471%);fill-opacity:1;" d="M 40.691406 24.734375 L 99.734375 24.734375 L 99.734375 37.5 L 40.691406 37.5 Z M 40.691406 24.734375 "/>
<path style=" stroke:none;fill-rule:nonzero;fill:rgb(0%,0%,0%);fill-opacity:1;" d="M 35.285156 67.519531 C 33.429688 65.664062 30.960938 64.644531 28.335938 64.644531 C 26.535156 64.644531 24.804688 65.125 23.296875 66.027344 L 23.296875 32.167969 C 23.296875 30.4375 22.847656 28.8125 22.0625 27.402344 C 22.578125 27.226562 23.125 27.128906 23.683594 27.128906 C 26.464844 27.128906 28.722656 29.386719 28.722656 32.167969 L 28.722656 57.054688 C 28.722656 58.378906 29.796875 59.449219 31.117188 59.449219 C 32.4375 59.449219 33.511719 58.378906 33.511719 57.054688 L 33.511719 32.167969 C 33.511719 26.75 29.101562 22.339844 23.683594 22.339844 C 21.859375 22.339844 20.101562 22.84375 18.578125 23.773438 C 17.089844 22.867188 15.339844 22.339844 13.472656 22.339844 C 8.054688 22.339844 3.644531 26.75 3.644531 32.167969 L 3.6875 79.367188 C 3.691406 81.480469 4.472656 84.464844 5.507812 86.308594 C 5.527344 86.339844 5.542969 86.367188 5.5625 86.398438 L 35.042969 133.984375 C 35.664062 135.117188 36.226562 137.273438 36.226562 138.542969 L 36.226562 147.566406 C 36.226562 148.886719 37.296875 149.957031 38.617188 149.957031 C 39.941406 149.957031 41.011719 148.886719 41.011719 147.566406 L 41.011719 138.542969 C 41.011719 136.429688 40.230469 133.441406 39.195312 131.597656 C 39.175781 131.570312 39.160156 131.539062 39.140625 131.511719 L 9.660156 83.925781 C 9.039062 82.792969 8.476562 80.632812 8.472656 79.363281 L 8.433594 32.167969 C 8.433594 29.386719 10.691406 27.128906 13.472656 27.128906 C 16.25 27.128906 18.511719 29.386719 18.511719 32.167969 L 18.511719 74.46875 C 18.511719 74.527344 18.515625 74.585938 18.519531 74.644531 C 18.5625 77.101562 19.515625 79.546875 21.386719 81.417969 L 44.257812 104.285156 C 45.191406 105.222656 46.707031 105.222656 47.640625 104.285156 C 48.578125 103.351562 48.578125 101.835938 47.640625 100.902344 L 24.773438 78.03125 C 23.820312 77.082031 23.296875 75.816406 23.296875 74.46875 C 23.296875 73.121094 23.820312 71.855469 24.773438 70.90625 C 25.726562 69.953125 26.992188 69.429688 28.335938 69.429688 C 29.683594 69.429688 30.949219 69.953125 31.910156 70.914062 L 60.382812 99.042969 C 63.546875 102.210938 66.222656 108.667969 66.222656 113.148438 L 66.222656 147.605469 C 66.222656 148.929688 67.292969 150 68.617188 150 C 69.9375 150 71.011719 148.929688 71.011719 147.605469 L 71.011719 113.148438 C 71.011719 107.402344 67.828125 99.722656 63.757812 95.648438 Z M 35.285156 67.519531 "/>
<path style=" stroke:none;fill-rule:nonzero;fill:rgb(0%,0%,0%);fill-opacity:1;" d="M 136.527344 22.339844 C 134.660156 22.339844 132.914062 22.863281 131.425781 23.773438 C 129.898438 22.839844 128.140625 22.339844 126.316406 22.339844 C 120.898438 22.339844 116.488281 26.75 116.488281 32.167969 L 116.488281 57.054688 C 116.488281 58.375 117.5625 59.449219 118.882812 59.449219 C 120.203125 59.449219 121.277344 58.375 121.277344 57.054688 L 121.277344 32.167969 C 121.277344 29.386719 123.539062 27.128906 126.316406 27.128906 C 126.875 27.128906 127.421875 27.222656 127.941406 27.402344 C 127.152344 28.8125 126.703125 30.4375 126.703125 32.167969 L 126.703125 66.027344 C 125.195312 65.125 123.464844 64.640625 121.664062 64.640625 C 119.039062 64.640625 116.570312 65.664062 114.726562 67.511719 L 86.234375 95.660156 C 82.171875 99.71875 78.988281 107.402344 78.988281 113.144531 L 78.988281 147.605469 C 78.988281 148.929688 80.0625 150 81.382812 150 C 82.707031 150 83.777344 148.929688 83.777344 147.605469 L 83.777344 113.148438 C 83.777344 108.667969 86.453125 102.210938 89.609375 99.054688 L 118.101562 70.90625 C 119.050781 69.953125 120.316406 69.429688 121.664062 69.429688 C 123.007812 69.429688 124.273438 69.953125 125.226562 70.90625 C 126.179688 71.855469 126.703125 73.121094 126.703125 74.46875 C 126.703125 75.816406 126.179688 77.082031 125.226562 78.03125 L 102.359375 100.902344 C 101.421875 101.835938 101.421875 103.351562 102.359375 104.285156 C 103.292969 105.222656 104.808594 105.222656 105.742188 104.285156 L 128.613281 81.417969 C 130.484375 79.546875 131.4375 77.101562 131.480469 74.644531 C 131.484375 74.585938 131.488281 74.527344 131.488281 74.46875 L 131.488281 32.167969 C 131.488281 29.386719 133.75 27.128906 136.527344 27.128906 C 139.308594 27.128906 141.566406 29.386719 141.566406 32.164062 L 141.527344 79.363281 C 141.523438 80.632812 140.964844 82.792969 140.339844 83.925781 L 110.859375 131.511719 C 110.839844 131.539062 110.824219 131.570312 110.808594 131.597656 C 109.769531 133.441406 108.988281 136.429688 108.988281 138.542969 L 108.988281 147.5625 C 108.988281 148.886719 110.0625 149.957031 111.382812 149.957031 C 112.703125 149.957031 113.777344 148.886719 113.777344 147.5625 L 113.777344 138.542969 C 113.777344 137.273438 114.335938 135.117188 114.957031 133.984375 L 144.441406 86.398438 C 144.457031 86.367188 144.476562 86.339844 144.492188 86.308594 C 145.527344 84.464844 146.3125 81.480469 146.3125 79.367188 L 146.355469 32.167969 C 146.355469 26.75 141.945312 22.339844 136.527344 22.339844 Z M 136.527344 22.339844 "/>
<path style=" stroke:none;fill-rule:nonzero;fill:rgb(0%,0%,0%);fill-opacity:1;" d="M 40.691406 62.234375 L 109.308594 62.234375 C 110.628906 62.234375 111.703125 61.164062 111.703125 59.839844 L 111.703125 47.074219 C 111.703125 45.753906 110.628906 44.679688 109.308594 44.679688 L 108.511719 44.679688 L 108.511719 39.894531 L 109.308594 39.894531 C 110.628906 39.894531 111.703125 38.824219 111.703125 37.5 L 111.703125 24.734375 C 111.703125 23.414062 110.628906 22.339844 109.308594 22.339844 L 108.511719 22.339844 L 108.511719 17.554688 L 109.308594 17.554688 C 110.628906 17.554688 111.703125 16.480469 111.703125 15.160156 L 111.703125 2.394531 C 111.703125 1.070312 110.628906 0 109.308594 0 L 40.691406 0 C 39.371094 0 38.296875 1.070312 38.296875 2.394531 L 38.296875 15.160156 C 38.296875 16.480469 39.371094 17.554688 40.691406 17.554688 L 41.488281 17.554688 L 41.488281 22.339844 L 40.691406 22.339844 C 39.371094 22.339844 38.296875 23.410156 38.296875 24.734375 L 38.296875 37.5 C 38.296875 38.820312 39.371094 39.894531 40.691406 39.894531 L 41.488281 39.894531 L 41.488281 44.679688 L 40.691406 44.679688 C 39.371094 44.679688 38.296875 45.753906 38.296875 47.074219 L 38.296875 59.839844 C 38.296875 61.164062 39.371094 62.234375 40.691406 62.234375 Z M 106.914062 57.445312 L 43.085938 57.445312 L 43.085938 49.46875 L 106.914062 49.46875 Z M 43.085938 4.789062 L 106.914062 4.789062 L 106.914062 12.765625 L 43.085938 12.765625 Z M 46.277344 17.554688 L 103.722656 17.554688 L 103.722656 22.339844 L 46.277344 22.339844 Z M 46.277344 39.894531 L 86.96875 39.894531 C 88.289062 39.894531 89.363281 38.820312 89.363281 37.5 C 89.363281 36.179688 88.289062 35.105469 86.96875 35.105469 L 43.085938 35.105469 L 43.085938 27.128906 L 106.914062 27.128906 L 106.914062 35.105469 L 96.542969 35.105469 C 95.222656 35.105469 94.148438 36.179688 94.148438 37.5 C 94.148438 38.820312 95.222656 39.894531 96.542969 39.894531 L 103.722656 39.894531 L 103.722656 44.679688 L 46.277344 44.679688 Z M 46.277344 39.894531 "/>
</g>
</svg>
