<svg id="Capa_1" enable-background="new 0 0 512 512" height="512" viewBox="0 0 512 512" width="512" xmlns="http://www.w3.org/2000/svg"><g><g><path d="m256 7.5c-137.24 0-248.5 111.26-248.5 248.5s111.26 248.5 248.5 248.5 248.5-111.26 248.5-248.5-111.26-248.5-248.5-248.5zm0 370.67c-67.47 0-122.17-54.7-122.17-122.17s54.7-122.17 122.17-122.17 122.17 54.7 122.17 122.17-54.7 122.17-122.17 122.17z" fill="#d6f6b2"/><g fill="#b3e59f"><path d="m42.331 256c0-131.384 101.972-238.942 231.084-247.883-5.754-.399-11.559-.617-17.415-.617-137.24 0-248.5 111.26-248.5 248.5s111.26 248.5 248.5 248.5c5.856 0 11.661-.218 17.416-.617-129.113-8.941-231.085-116.499-231.085-247.883z"/><path d="m273.416 376.929c5.689.812 11.502 1.241 17.416 1.241 67.47 0 122.17-54.7 122.17-122.17s-54.7-122.17-122.17-122.17c-5.914 0-11.726.429-17.416 1.241 59.22 8.455 104.754 59.373 104.754 120.929s-45.534 112.474-104.754 120.929z"/></g><g><path d="m334.468 209.408c3.348-6.748.591-14.926-6.157-18.275l-21.115-10.459c-6.748-3.348-14.926-.591-18.274 6.157l-41.784 84.303-20.348-34.03c-3.866-6.468-12.231-8.572-18.699-4.706l-20.223 12.086c-6.458 3.866-8.572 12.231-4.706 18.699l40.094 67.065c2.56 4.281 7.256 6.831 12.231 6.634l28.422-1.119c4.986-.197 9.464-3.099 11.672-7.567z" fill="#95d6a4"/><g fill="#78c2a4"><path d="m255.637 285.35 48.829-98.518c1.089-2.195 2.694-3.958 4.589-5.236l-1.86-.921c-6.748-3.348-14.926-.591-18.274 6.157l-41.784 84.303z"/><path d="m238.801 330.25-40.094-67.065c-3.866-6.468-1.752-14.833 4.706-18.699l19.411-11.601c-4.258-2.935-10-3.314-14.733-.485l-20.223 12.086c-6.458 3.866-8.572 12.231-4.706 18.699l40.094 67.065c2.56 4.281 7.256 6.831 12.231 6.634l11.518-.454c-3.383-.901-6.353-3.085-8.204-6.18z"/></g></g></g><g><path d="m437.019 74.982c-48.353-48.353-112.64-74.982-181.019-74.982s-132.666 26.629-181.019 74.982c-48.352 48.352-74.981 112.639-74.981 181.018 0 66.665 25.497 129.798 71.794 177.768 2.876 2.981 7.625 3.064 10.604.188 2.98-2.877 3.065-7.625.188-10.605-43.583-45.159-67.586-104.592-67.586-167.351 0-64.372 25.068-124.892 70.588-170.412s106.04-70.588 170.412-70.588 124.893 25.069 170.412 70.588 70.588 106.04 70.588 170.412-25.068 124.892-70.588 170.412-106.04 70.588-170.412 70.588c-55.3 0-109.332-19.208-152.143-54.085-3.211-2.617-7.936-2.133-10.552 1.078s-2.134 7.936 1.077 10.552c45.48 37.05 102.877 57.455 161.618 57.455 68.379 0 132.666-26.629 181.019-74.982 48.352-48.352 74.981-112.639 74.981-181.018s-26.629-132.666-74.981-181.018z"/><path d="m126.335 256c0 71.498 58.168 129.665 129.665 129.665s129.665-58.167 129.665-129.665-58.168-129.665-129.665-129.665-129.665 58.167-129.665 129.665zm129.665-114.665c63.227 0 114.665 51.438 114.665 114.665s-51.438 114.665-114.665 114.665-114.665-51.438-114.665-114.665 51.438-114.665 114.665-114.665z"/><path d="m176.723 267.029 40.101 67.072c3.831 6.403 10.715 10.291 18.113 10.291.282 0 .565-.006.849-.017l28.41-1.119c7.729-.294 14.667-4.787 18.104-11.723l58.888-118.787c2.512-5.06 2.901-10.794 1.097-16.146-1.803-5.348-5.582-9.677-10.645-12.189l-21.113-10.462c-10.445-5.167-23.148-.882-28.327 9.554l-7.35 14.84c-1.839 3.712-.319 8.211 3.393 10.05 3.71 1.838 8.21.319 10.049-3.392l7.348-14.834c1.503-3.03 5.196-4.275 8.231-2.774l21.105 10.458c1.472.731 2.571 1.989 3.095 3.543.523 1.552.41 3.216-.32 4.688l-58.892 118.788c-.995 2.009-3.001 3.31-5.244 3.396l-28.426 1.12c-2.251.09-4.338-1.055-5.492-2.985l-40.099-67.069c-.84-1.404-1.081-3.052-.681-4.64s1.395-2.925 2.801-3.766l20.221-12.091c2.901-1.737 6.677-.785 8.414 2.113l20.35 34.03c1.408 2.355 3.979 3.753 6.732 3.645 2.741-.108 5.206-1.705 6.424-4.164l21.19-42.76c1.84-3.711.322-8.211-3.39-10.05-3.713-1.84-8.211-.321-10.05 3.39l-15.088 30.445-13.299-22.239c-5.987-9.995-18.99-13.26-28.982-7.283l-20.218 12.089c-4.845 2.895-8.271 7.502-9.651 12.975-1.378 5.475-.544 11.157 2.352 16.003z"/><path d="m93.315 239.163c-3.544-2.143-8.155-1.008-10.299 2.537l-16.606 27.463-5.688-6.374c-2.757-3.089-7.497-3.361-10.59-.602-3.09 2.758-3.359 7.499-.602 10.59l12.448 13.948c1.43 1.602 3.47 2.506 5.595 2.506.23 0 .462-.01.693-.032 2.369-.219 4.494-1.551 5.726-3.587l21.859-36.151c2.145-3.544 1.008-8.155-2.536-10.298z"/><path d="m434.036 289.231c.23 0 .462-.01.693-.032 2.369-.219 4.494-1.551 5.726-3.587l21.859-36.151c2.144-3.544 1.007-8.155-2.537-10.299-3.545-2.143-8.155-1.008-10.299 2.537l-16.606 27.463-5.688-6.374c-2.756-3.089-7.496-3.361-10.59-.602-3.09 2.758-3.359 7.499-.602 10.59l12.448 13.948c1.431 1.603 3.471 2.507 5.596 2.507z"/><path d="m60.026 361.591c1.478 1.585 3.48 2.387 5.489 2.387 1.83 0 3.666-.666 5.111-2.013l44.425-41.396c.053-.05.105-.1.157-.151 2.553-2.521 3.32-6.295 1.956-9.613-1.363-3.316-4.559-5.458-8.145-5.458-.052.003-.128.001-.191.002l-60.771 1.542c-4.141.105-7.412 3.547-7.308 7.688.105 4.141 3.55 7.417 7.688 7.307l9.968-.253 9.263 22.583-7.268 6.774c-3.03 2.824-3.197 7.57-.374 10.601zm14.427-40.365 18.391-.466-13.444 12.526z"/><path d="m410.102 408.139c1.346 1.102 3.027 1.698 4.752 1.698.247 0 .495-.012.743-.037 1.979-.197 3.799-1.172 5.06-2.711l15.242-18.613c2.624-3.205 2.153-7.93-1.051-10.554s-7.93-2.154-10.555 1.051l-10.49 12.81-10.481-8.583 9.366-11.438c2.624-3.205 2.153-7.93-1.051-10.554s-7.93-2.155-10.555 1.051l-9.366 11.437-10.48-8.583 10.49-12.81c2.624-3.205 2.153-7.93-1.051-10.554s-7.93-2.155-10.555 1.051l-15.242 18.613c-2.624 3.205-2.153 7.93 1.051 10.554z"/><path d="m450.898 358.143c.97 0 1.939-.188 2.854-.564 1.842-.758 3.307-2.217 4.071-4.055.184-.442 4.521-10.872 6.198-15.064 6.347-15.866-2.546-33.057-21.146-40.876h.001c-8.813-3.705-17.508-4.658-25.144-2.757-8.759 2.18-15.578 8.127-19.201 16.745l-6.138 14.599c-.771 1.836-.781 3.904-.027 5.747.755 1.843 2.211 3.311 4.049 4.079l51.59 21.566c.926.387 1.91.58 2.893.58zm-41.763-33.087 3.226-7.671c1.82-4.331 4.763-6.948 8.996-8.002 4.406-1.097 9.985-.376 15.706 2.029h.001c12.786 5.375 15.758 14.66 13.03 21.478-.734 1.838-2.032 4.997-3.244 7.932z"/><path d="m365.826 446.34c1.52 0 3.046-.392 4.42-1.191 3.236-1.881 4.93-5.614 4.205-9.339l-11.798-58.498c-.818-4.06-4.772-6.688-8.834-5.869-4.061.819-6.688 4.774-5.869 8.835l8.188 40.596-31.521-27.476c-3.122-2.722-7.86-2.397-10.581.725-2.722 3.123-2.397 7.86.726 10.582l45.328 39.512c1.633 1.404 3.678 2.123 5.736 2.123z"/><path d="m246.751 430.071c2.18-12.199-6.347-23.964-19.007-26.226l-15.072-2.692c-1.962-.35-3.984.094-5.617 1.237-1.634 1.142-2.746 2.888-3.09 4.852 0 .001-10.146 56.694-10.146 56.694-.729 4.078 1.986 7.974 6.063 8.702.446.08.89.118 1.328.118 3.564 0 6.726-2.551 7.374-6.182l2.73-15.281 14.141 23.328c1.411 2.327 3.885 3.613 6.421 3.613 1.324 0 2.666-.351 3.881-1.088 3.542-2.147 4.673-6.759 2.526-10.302l-11.258-18.572c3.521-.443 6.92-1.665 9.951-3.64 5.236-3.409 8.708-8.581 9.775-14.561zm-14.766-2.637c-.333 1.861-1.468 3.506-3.197 4.633-1.83 1.192-4.13 1.652-6.31 1.262-1.79-.32-4.785-.843-7.632-1.337.48-2.771 2.082-11.843 2.593-14.75l7.667 1.37c4.442.793 7.591 4.833 6.879 8.822z"/><path d="m109.37 387.988c4.794 5.612 11.594 8.503 18.401 8.503 5.438 0 10.881-1.846 15.305-5.625 4.84-4.134 7.738-9.967 8.16-16.424.415-6.355-1.62-12.505-5.73-17.316l-10.419-12.201c-1.295-1.516-3.14-2.454-5.127-2.607-1.987-.155-3.955.492-5.467 1.791l-43.796 37.404c-3.149 2.69-3.522 7.424-.832 10.574 1.483 1.737 3.589 2.629 5.707 2.629 1.723 0 3.454-.591 4.867-1.797l13.359-11.41c2.057 2.384 4.277 4.962 5.572 6.479zm24.73-21.121c1.558 1.823 2.327 4.166 2.169 6.597-.156 2.384-1.198 4.513-2.935 5.996-3.61 3.084-9.361 2.527-12.557-1.214-1.283-1.503-3.474-4.045-5.517-6.413l13.308-11.444z"/><path d="m182.264 386.898-14.246-7.378c-1.771-.917-3.835-1.091-5.731-.484-1.899.607-3.479 1.945-4.39 3.718l-26.486 51.144c-1.904 3.678-.467 8.204 3.211 10.109 1.103.571 2.281.842 3.443.842 2.713 0 5.332-1.477 6.666-4.052l8.08-15.601c2.802 1.433 5.83 2.985 7.6 3.902 3.572 1.85 7.391 2.726 11.148 2.726 8.645 0 16.961-4.643 21.161-12.752 6.024-11.635 1.335-26.068-10.456-32.174zm-2.865 25.274c-2.184 4.217-7.719 5.868-12.091 3.604-1.754-.909-4.74-2.439-7.524-3.863l8.018-15.613 7.564 3.917c4.37 2.264 6.217 7.739 4.033 11.955z"/><path d="m284.83 403.135c-9.647.997-18.329 5.692-24.445 13.219s-8.936 16.986-7.938 26.633c.997 9.647 5.691 18.329 13.219 24.446 6.534 5.31 14.524 8.135 22.83 8.135 1.262 0 2.53-.065 3.803-.197 9.647-.998 18.329-5.692 24.445-13.219s8.936-16.985 7.938-26.633c-2.06-19.917-19.946-34.443-39.852-32.384zm20.273 49.556c-3.589 4.417-8.685 7.173-14.347 7.758-5.666.586-11.214-1.069-15.631-4.659s-7.172-8.685-7.758-14.347c-.585-5.662 1.069-11.213 4.659-15.631 3.589-4.417 8.685-7.173 14.347-7.758.742-.077 1.478-.114 2.208-.114 10.772 0 20.049 8.174 21.181 19.12.585 5.662-1.07 11.213-4.659 15.631z"/><path d="m53.053 183.088c-3.573.322-6.566 2.745-7.625 6.174-1.058 3.428.049 7.117 2.819 9.396.047.038.094.076.142.113l47.858 37.481c1.372 1.075 3.001 1.596 4.619 1.596 2.227 0 4.431-.987 5.909-2.876 2.555-3.261 1.981-7.975-1.28-10.529l-7.849-6.147 7.225-23.316 9.918-.599c4.135-.25 7.284-3.804 7.034-7.939-.249-4.135-3.832-7.282-7.938-7.034l-60.611 3.663c-.075.004-.148.01-.221.017zm35.814 12.859-3.858 12.452-14.484-11.343z"/><path d="m429.062 115.857c-2.459-3.334-7.153-4.043-10.487-1.585l-45.953 33.884c-1.601 1.18-2.667 2.948-2.965 4.915-.297 1.967.199 3.971 1.38 5.572l14.277 19.362c1.471 1.994 3.741 3.05 6.042 3.049 1.546 0 3.105-.476 4.445-1.464 3.334-2.458 4.044-7.154 1.585-10.488l-9.826-13.326 10.904-8.04 8.774 11.899c1.471 1.994 3.741 3.049 6.042 3.049 1.546 0 3.105-.476 4.445-1.464 3.334-2.458 4.044-7.154 1.585-10.488l-8.773-11.898 10.904-8.04 9.826 13.326c2.459 3.334 7.153 4.043 10.487 1.585s4.044-7.154 1.585-10.488z"/><path d="m467.542 196.32-4.277-15.248c-.538-1.918-1.816-3.542-3.554-4.516s-3.793-1.217-5.707-.676c-.001 0-53.82 15.215-53.82 15.215-1.913.544-3.532 1.826-4.5 3.564-.969 1.738-1.206 3.789-.662 5.703.132.46 3.225 11.323 4.52 15.65 3.863 12.9 15.646 20.556 29.975 20.556 3.854 0 7.893-.554 12.01-1.709 20.418-5.728 30.873-21.216 26.015-38.539zm-30.067 24.096c-13.355 3.745-21.458-1.674-23.563-8.707-.568-1.899-1.52-5.185-2.398-8.241 6.33-1.797 32.746-9.25 39.338-11.112l2.248 8.014c3.778 13.474-11.005 18.75-15.625 20.046z"/><path d="m363.445 59.706c-3.97-1.19-8.148 1.064-9.338 5.031l-17.265 57.604c-1.046 3.593.3 7.465 3.351 9.634 1.52 1.081 3.3 1.623 5.086 1.623 1.798 0 3.603-.55 5.153-1.652l48.403-34.905c3.359-2.423 4.119-7.11 1.696-10.47-2.424-3.361-7.113-4.118-10.47-1.697l-33.591 24.224 12.005-40.054c1.19-3.968-1.062-8.149-5.03-9.338z"/><path d="m242.684 56.008c-1.213-5.952-4.808-11.039-10.124-14.323-5.145-3.177-11.261-4.26-17.216-3.046l-15.003 3.056c-3.973.728-6.744 4.932-5.847 8.87l11.477 56.44c.724 3.554 3.85 6.005 7.341 6.005.496 0 1-.05 1.505-.152 4.059-.827 6.679-4.787 5.852-8.846l-3.098-15.211 21.748 16.469c1.354 1.026 2.944 1.521 4.521 1.521 2.269 0 4.51-1.025 5.985-2.973 2.5-3.302 1.851-8.006-1.452-10.507l-17.299-13.1c8.62-4.719 13.605-14.402 11.61-24.203zm-24.346-2.67c2.17-.443 4.481-.038 6.339 1.109 1.756 1.085 2.931 2.702 3.308 4.554.809 3.97-2.242 8.085-6.663 8.986-1.781.363-4.758.981-7.586 1.572-.575-2.753-2.433-11.776-3.029-14.666z"/><path d="m85.842 113.657-10.034 12.519c-2.586 3.101-2.028 8.105 1.181 10.558.001.001 44.942 36.021 44.942 36.021 3.209 2.578 7.94 2.085 10.543-1.162 2.59-3.232 2.07-7.952-1.162-10.543l-13.709-10.988c1.956-2.466 4.073-5.13 5.32-6.686 8.303-10.36 6.741-25.455-3.481-33.648-10.221-8.192-25.295-6.431-33.6 3.929zm11.705 9.381c3.076-3.84 8.808-4.576 12.514-1.605 3.705 2.97 4.235 8.723 1.157 12.563-1.237 1.544-3.33 4.177-5.275 6.63-2.541-2.015-11.068-8.821-13.726-10.938z"/><path d="m160.525 62.822c-6.258-1.19-12.609.077-17.889 3.567l-13.383 8.847c-3.413 2.16-4.411 7.096-2.107 10.413.001.001 31.763 48.047 31.763 48.047 2.299 3.482 6.984 4.386 10.393 2.12 3.456-2.284 4.405-6.937 2.121-10.393l-9.689-14.656c2.617-1.749 5.447-3.637 7.11-4.737 5.279-3.49 8.934-8.839 10.29-15.061 1.378-6.323.203-12.729-3.307-18.039-3.511-5.309-8.944-8.899-15.302-10.108zm3.953 24.953c-.519 2.381-1.906 4.42-3.905 5.742-1.651 1.092-4.449 2.958-7.053 4.698-1.802-2.696-7.838-11.785-9.719-14.614l7.108-4.7c1.999-1.322 4.421-1.799 6.813-1.344 2.347.446 4.332 1.741 5.591 3.645h.001c1.259 1.906 1.672 4.24 1.164 6.573z"/><path d="m286.589 109.215c2.203.404 4.396.598 6.561.598 17.182 0 32.494-12.279 35.699-29.769 3.608-19.694-9.479-38.651-29.172-42.26-9.537-1.748-19.189.324-27.171 5.833-7.982 5.51-13.341 13.798-15.088 23.338-1.748 9.54.323 19.19 5.833 27.171 5.509 7.983 13.798 13.341 23.338 15.089zm-14.417-39.556c1.026-5.599 4.171-10.463 8.855-13.697 3.6-2.485 7.777-3.778 12.061-3.778 1.29 0 2.59.117 3.886.355 11.558 2.118 19.238 13.244 17.121 24.802-2.119 11.558-13.241 19.238-24.803 17.121-5.599-1.026-10.463-4.171-13.697-8.855-3.234-4.685-4.449-10.349-3.423-15.948z"/></g></g></svg>