<svg id="Capa_1" enable-background="new 0 0 510 510" height="512" viewBox="0 0 510 510" width="512" xmlns="http://www.w3.org/2000/svg"><g><g id="XMLID_5490_"><path id="XMLID_5682_" d="m131.8 495 93.2-60 20-202.5-20-202.5-101.2-15-101.3 15v420c0 33.1 26.9 60 60 60l14.2-.3z" fill="#f9f2f8"/><path id="XMLID_5699_" d="m225 0c-11.2 0-191.3 0-202.5 0v30h202.5l13.3-15z" fill="#e0dde8"/><path id="XMLID_5601_" d="m225 435 101.2 19.7 101.3-19.7c0-11.4 0-393.6 0-405l-101.3-15-101.2 15z" fill="#e0dde8"/><g id="XMLID_5531_"><g><path id="XMLID_1235_" d="m352.5 255c-26.4 0-81.9 0-97.5 0 0-10.5 0-19.5 0-30h97.5z" fill="#a8baff"/></g></g><path id="XMLID_5686_" d="m127.5 435v30c0 24.9-20.1 45-45 45h142.5l20-37.5-20-37.5c-26.4 0-81.9 0-97.5 0z" fill="#e0dde8"/><path id="XMLID_5698_" d="m225 435v75h187.5c41.4 0 75-33.6 75-75-13.6 0-248.2 0-262.5 0z" fill="#ceccdb"/><path id="XMLID_5700_" d="m427.5 30c0-10.3 0-19.7 0-30-11.2 0-191.3 0-202.5 0v30z" fill="#ceccdb"/><path id="XMLID_5587_" d="m97.5 285v30h127.5l13.3-15-13.3-15c-15.4 0-112 0-127.5 0z" fill="#a8baff"/><path id="XMLID_5606_" d="m352.5 285c-15.4 0-112 0-127.5 0v30h127.5c0-10.5 0-19.5 0-30z" fill="#7995ff"/><path id="XMLID_5572_" d="m221.9 165c1.1-4.2 2-7.9 3.1-12.1l5.5-45.4-5.5-45.4c-.2-.1-7.5-1.9-7-1.8-2.3 9-10.3 39.8-14 54.3-11.9 2-22 3.7-33.9 5.6 1.7 10.4 3.2 19.2 4.9 29.6 7.3-1.2 13.5-2.2 20.7-3.5-4 15.5-8.6 33.2-12.6 48.7h41.9l13.3-15-13.3-15h-1.6z" fill="#98e53b"/><path id="XMLID_5544_" d="m228.1 140.9c12.9-2.1 24-4 36.9-6.1-1.7-10.3-3.2-19.2-4.9-29.6-8.3 1.4-15.4 2.6-23.7 4 3.7-14.5 7-26.9 10.7-41.4-7.7-2-14.3-3.7-22-5.7v90.8c1-4.2 1.9-7.8 3-12z" fill="#27d072"/><path id="XMLID_5694_" d="m97.5 375h127.5l18.8-15-18.8-15c-15.4 0-112 0-127.5 0z" fill="#a8baff"/><path id="XMLID_5684_" d="m352.5 375c0-10.5 0-19.5 0-30-15.4 0-112 0-127.5 0v30z" fill="#7995ff"/></g><path d="m225 165h37.4v30h-37.4z" fill="#27d072"/></g></svg>