<?xml version="1.0" encoding="UTF-8"?>
<svg xmlns="http://www.w3.org/2000/svg" xmlns:xlink="http://www.w3.org/1999/xlink" width="150pt" height="150pt" viewBox="0 0 150 150" version="1.1">
<g id="surface1">
<path style=" stroke:none;fill-rule:nonzero;fill:rgb(41.176471%,55.686275%,75.294118%);fill-opacity:1;" d="M 42.1875 51.5625 L 107.8125 51.5625 L 107.8125 60.9375 L 42.1875 60.9375 Z M 42.1875 51.5625 "/>
<path style=" stroke:none;fill-rule:nonzero;fill:rgb(41.176471%,55.686275%,75.294118%);fill-opacity:1;" d="M 42.1875 23.4375 L 107.8125 23.4375 L 107.8125 32.8125 L 42.1875 32.8125 Z M 42.1875 23.4375 "/>
<path style=" stroke:none;fill-rule:nonzero;fill:rgb(26.666667%,44.705882%,69.019608%);fill-opacity:1;" d="M 37.5 4.6875 L 112.5 4.6875 L 112.5 23.4375 L 37.5 23.4375 Z M 37.5 4.6875 "/>
<path style=" stroke:none;fill-rule:nonzero;fill:rgb(26.666667%,44.705882%,69.019608%);fill-opacity:1;" d="M 37.5 32.8125 L 112.5 32.8125 L 112.5 51.5625 L 37.5 51.5625 Z M 37.5 32.8125 "/>
<path style=" stroke:none;fill-rule:nonzero;fill:rgb(26.666667%,44.705882%,69.019608%);fill-opacity:1;" d="M 112.5 79.6875 L 112.5 60.9375 L 37.5 60.9375 L 37.5 79.6875 L 49.21875 79.6875 L 53.90625 75 L 60.9375 75 L 65.625 77.34375 L 72.65625 70.3125 L 84.375 70.3125 L 91.40625 77.34375 L 98.4375 75 L 105.46875 79.6875 Z M 112.5 79.6875 "/>
<path style=" stroke:none;fill-rule:nonzero;fill:rgb(62.745098%,65.882353%,69.803922%);fill-opacity:1;" d="M 11.71875 93.75 L 11.71875 114.84375 L 4.6875 114.84375 L 16.40625 126.5625 L 28.125 114.84375 L 21.09375 114.84375 L 21.09375 93.75 Z M 11.71875 93.75 "/>
<path style=" stroke:none;fill-rule:nonzero;fill:rgb(62.745098%,65.882353%,69.803922%);fill-opacity:1;" d="M 128.90625 65.625 L 128.90625 86.71875 L 121.875 86.71875 L 133.59375 98.4375 L 145.3125 86.71875 L 138.28125 86.71875 L 138.28125 65.625 Z M 128.90625 65.625 "/>
<path style=" stroke:none;fill-rule:nonzero;fill:rgb(0%,0%,0%);fill-opacity:1;" d="M 112.5 2.34375 L 37.5 2.34375 C 36.207031 2.34375 35.15625 3.394531 35.15625 4.6875 L 35.15625 23.4375 C 35.15625 24.730469 36.207031 25.78125 37.5 25.78125 L 39.84375 25.78125 L 39.84375 30.46875 L 37.5 30.46875 C 36.207031 30.46875 35.15625 31.519531 35.15625 32.8125 L 35.15625 51.5625 C 35.15625 52.855469 36.207031 53.90625 37.5 53.90625 L 39.84375 53.90625 L 39.84375 58.59375 L 37.5 58.59375 C 36.207031 58.59375 35.15625 59.644531 35.15625 60.9375 L 35.15625 79.6875 C 35.15625 80.980469 36.207031 82.03125 37.5 82.03125 L 49.21875 82.03125 C 49.839844 82.035156 50.441406 81.789062 50.882812 81.351562 L 54.867188 77.34375 L 60.375 77.34375 L 64.570312 79.429688 C 65.472656 79.890625 66.570312 79.722656 67.289062 79.007812 L 73.617188 72.65625 L 83.414062 72.65625 L 89.742188 79.007812 C 90.359375 79.613281 91.261719 79.828125 92.085938 79.570312 L 98.015625 77.578125 L 104.109375 81.632812 C 104.511719 81.902344 104.984375 82.042969 105.46875 82.03125 L 112.5 82.03125 C 113.792969 82.03125 114.84375 80.980469 114.84375 79.6875 L 114.84375 60.9375 C 114.84375 59.644531 113.792969 58.59375 112.5 58.59375 L 110.15625 58.59375 L 110.15625 53.90625 L 112.5 53.90625 C 113.792969 53.90625 114.84375 52.855469 114.84375 51.5625 L 114.84375 32.8125 C 114.84375 31.519531 113.792969 30.46875 112.5 30.46875 L 110.15625 30.46875 L 110.15625 25.78125 L 112.5 25.78125 C 113.792969 25.78125 114.84375 24.730469 114.84375 23.4375 L 114.84375 4.6875 C 114.84375 3.394531 113.792969 2.34375 112.5 2.34375 Z M 110.15625 77.34375 L 106.171875 77.34375 L 99.726562 73.054688 C 99.125 72.652344 98.375 72.546875 97.6875 72.773438 L 92.039062 74.671875 L 86.039062 68.648438 C 85.597656 68.210938 84.996094 67.964844 84.375 67.96875 L 72.65625 67.96875 C 72.035156 67.964844 71.433594 68.210938 70.992188 68.648438 L 65.15625 74.484375 L 61.992188 72.914062 C 61.664062 72.746094 61.304688 72.660156 60.9375 72.65625 L 53.90625 72.65625 C 53.285156 72.652344 52.683594 72.898438 52.242188 73.335938 L 48.257812 77.34375 L 39.84375 77.34375 L 39.84375 63.28125 L 110.15625 63.28125 Z M 105.46875 58.59375 L 44.53125 58.59375 L 44.53125 53.90625 L 105.46875 53.90625 Z M 110.15625 49.21875 L 39.84375 49.21875 L 39.84375 35.15625 L 110.15625 35.15625 Z M 105.46875 30.46875 L 44.53125 30.46875 L 44.53125 25.78125 L 105.46875 25.78125 Z M 110.15625 21.09375 L 39.84375 21.09375 L 39.84375 7.03125 L 110.15625 7.03125 Z M 110.15625 21.09375 "/>
<path style=" stroke:none;fill-rule:nonzero;fill:rgb(0%,0%,0%);fill-opacity:1;" d="M 100.78125 11.71875 L 105.46875 11.71875 L 105.46875 16.40625 L 100.78125 16.40625 Z M 100.78125 11.71875 "/>
<path style=" stroke:none;fill-rule:nonzero;fill:rgb(0%,0%,0%);fill-opacity:1;" d="M 91.40625 11.71875 L 96.09375 11.71875 L 96.09375 16.40625 L 91.40625 16.40625 Z M 91.40625 11.71875 "/>
<path style=" stroke:none;fill-rule:nonzero;fill:rgb(0%,0%,0%);fill-opacity:1;" d="M 82.03125 11.71875 L 86.71875 11.71875 L 86.71875 16.40625 L 82.03125 16.40625 Z M 82.03125 11.71875 "/>
<path style=" stroke:none;fill-rule:nonzero;fill:rgb(0%,0%,0%);fill-opacity:1;" d="M 44.53125 11.71875 L 49.21875 11.71875 L 49.21875 16.40625 L 44.53125 16.40625 Z M 44.53125 11.71875 "/>
<path style=" stroke:none;fill-rule:nonzero;fill:rgb(0%,0%,0%);fill-opacity:1;" d="M 100.78125 39.84375 L 105.46875 39.84375 L 105.46875 44.53125 L 100.78125 44.53125 Z M 100.78125 39.84375 "/>
<path style=" stroke:none;fill-rule:nonzero;fill:rgb(0%,0%,0%);fill-opacity:1;" d="M 91.40625 39.84375 L 96.09375 39.84375 L 96.09375 44.53125 L 91.40625 44.53125 Z M 91.40625 39.84375 "/>
<path style=" stroke:none;fill-rule:nonzero;fill:rgb(0%,0%,0%);fill-opacity:1;" d="M 82.03125 39.84375 L 86.71875 39.84375 L 86.71875 44.53125 L 82.03125 44.53125 Z M 82.03125 39.84375 "/>
<path style=" stroke:none;fill-rule:nonzero;fill:rgb(0%,0%,0%);fill-opacity:1;" d="M 44.53125 39.84375 L 49.21875 39.84375 L 49.21875 44.53125 L 44.53125 44.53125 Z M 44.53125 39.84375 "/>
<path style=" stroke:none;fill-rule:nonzero;fill:rgb(0%,0%,0%);fill-opacity:1;" d="M 56.25 96.09375 L 56.25 91.40625 C 56.25 87.523438 53.101562 84.375 49.21875 84.375 C 45.335938 84.375 42.1875 87.523438 42.1875 91.40625 L 42.1875 96.09375 C 42.1875 99.976562 45.335938 103.125 49.21875 103.125 C 53.101562 103.125 56.25 99.976562 56.25 96.09375 Z M 51.5625 96.09375 C 51.5625 97.386719 50.511719 98.4375 49.21875 98.4375 C 47.925781 98.4375 46.875 97.386719 46.875 96.09375 L 46.875 91.40625 C 46.875 90.113281 47.925781 89.0625 49.21875 89.0625 C 50.511719 89.0625 51.5625 90.113281 51.5625 91.40625 Z M 51.5625 96.09375 "/>
<path style=" stroke:none;fill-rule:nonzero;fill:rgb(0%,0%,0%);fill-opacity:1;" d="M 84.375 112.5 C 84.375 108.617188 81.226562 105.46875 77.34375 105.46875 C 73.460938 105.46875 70.3125 108.617188 70.3125 112.5 L 70.3125 117.1875 C 70.3125 121.070312 73.460938 124.21875 77.34375 124.21875 C 81.226562 124.21875 84.375 121.070312 84.375 117.1875 Z M 79.6875 117.1875 C 79.6875 118.480469 78.636719 119.53125 77.34375 119.53125 C 76.050781 119.53125 75 118.480469 75 117.1875 L 75 112.5 C 75 111.207031 76.050781 110.15625 77.34375 110.15625 C 78.636719 110.15625 79.6875 111.207031 79.6875 112.5 Z M 79.6875 117.1875 "/>
<path style=" stroke:none;fill-rule:nonzero;fill:rgb(0%,0%,0%);fill-opacity:1;" d="M 91.40625 124.21875 C 87.523438 124.21875 84.375 127.367188 84.375 131.25 L 84.375 135.9375 C 84.375 139.820312 87.523438 142.96875 91.40625 142.96875 C 95.289062 142.96875 98.4375 139.820312 98.4375 135.9375 L 98.4375 131.25 C 98.4375 127.367188 95.289062 124.21875 91.40625 124.21875 Z M 93.75 135.9375 C 93.75 137.230469 92.699219 138.28125 91.40625 138.28125 C 90.113281 138.28125 89.0625 137.230469 89.0625 135.9375 L 89.0625 131.25 C 89.0625 129.957031 90.113281 128.90625 91.40625 128.90625 C 92.699219 128.90625 93.75 129.957031 93.75 131.25 Z M 93.75 135.9375 "/>
<path style=" stroke:none;fill-rule:nonzero;fill:rgb(0%,0%,0%);fill-opacity:1;" d="M 100.78125 93.75 L 100.78125 89.0625 C 100.78125 85.179688 97.632812 82.03125 93.75 82.03125 C 89.867188 82.03125 86.71875 85.179688 86.71875 89.0625 L 86.71875 93.75 C 86.71875 97.632812 89.867188 100.78125 93.75 100.78125 C 97.632812 100.78125 100.78125 97.632812 100.78125 93.75 Z M 91.40625 93.75 L 91.40625 89.0625 C 91.40625 87.769531 92.457031 86.71875 93.75 86.71875 C 95.042969 86.71875 96.09375 87.769531 96.09375 89.0625 L 96.09375 93.75 C 96.09375 95.042969 95.042969 96.09375 93.75 96.09375 C 92.457031 96.09375 91.40625 95.042969 91.40625 93.75 Z M 91.40625 93.75 "/>
<path style=" stroke:none;fill-rule:nonzero;fill:rgb(0%,0%,0%);fill-opacity:1;" d="M 73.546875 79.875 C 72.675781 79.507812 71.667969 79.703125 70.992188 80.367188 L 66.304688 85.054688 L 69.632812 88.382812 L 70.3125 87.679688 L 70.3125 93.75 L 67.96875 93.75 L 67.96875 98.4375 L 77.34375 98.4375 L 77.34375 93.75 L 75 93.75 L 75 82.03125 C 74.996094 81.085938 74.421875 80.234375 73.546875 79.875 Z M 73.546875 79.875 "/>
<path style=" stroke:none;fill-rule:nonzero;fill:rgb(0%,0%,0%);fill-opacity:1;" d="M 103.125 105.46875 C 103.121094 104.523438 102.546875 103.671875 101.671875 103.3125 C 100.800781 102.945312 99.792969 103.140625 99.117188 103.804688 L 94.429688 108.492188 L 97.757812 111.820312 L 98.4375 111.117188 L 98.4375 117.1875 L 96.09375 117.1875 L 96.09375 121.875 L 105.46875 121.875 L 105.46875 117.1875 L 103.125 117.1875 Z M 103.125 105.46875 "/>
<path style=" stroke:none;fill-rule:nonzero;fill:rgb(0%,0%,0%);fill-opacity:1;" d="M 70.3125 131.25 C 70.308594 130.304688 69.734375 129.453125 68.859375 129.09375 C 67.988281 128.726562 66.980469 128.921875 66.304688 129.585938 L 61.617188 134.273438 L 64.945312 137.601562 L 65.625 136.898438 L 65.625 142.96875 L 63.28125 142.96875 L 63.28125 147.65625 L 72.65625 147.65625 L 72.65625 142.96875 L 70.3125 142.96875 Z M 70.3125 131.25 "/>
<path style=" stroke:none;fill-rule:nonzero;fill:rgb(0%,0%,0%);fill-opacity:1;" d="M 58.59375 107.8125 C 58.589844 106.867188 58.015625 106.015625 57.140625 105.65625 C 56.269531 105.289062 55.261719 105.484375 54.585938 106.148438 L 49.898438 110.835938 L 53.226562 114.164062 L 53.90625 113.460938 L 53.90625 119.53125 L 51.5625 119.53125 L 51.5625 124.21875 L 60.9375 124.21875 L 60.9375 119.53125 L 58.59375 119.53125 Z M 58.59375 107.8125 "/>
<path style=" stroke:none;fill-rule:nonzero;fill:rgb(0%,0%,0%);fill-opacity:1;" d="M 28.125 112.5 L 23.4375 112.5 L 23.4375 93.75 C 23.4375 92.457031 22.386719 91.40625 21.09375 91.40625 L 11.71875 91.40625 C 10.425781 91.40625 9.375 92.457031 9.375 93.75 L 9.375 112.5 L 4.6875 112.5 C 3.742188 112.503906 2.890625 113.078125 2.53125 113.953125 C 2.164062 114.824219 2.359375 115.832031 3.023438 116.507812 L 14.742188 128.226562 C 15.183594 128.671875 15.78125 128.917969 16.40625 128.917969 C 17.03125 128.917969 17.628906 128.671875 18.070312 128.226562 L 29.789062 116.507812 C 30.453125 115.832031 30.648438 114.824219 30.28125 113.953125 C 29.921875 113.078125 29.070312 112.503906 28.125 112.5 Z M 16.40625 123.257812 L 10.335938 117.1875 L 11.71875 117.1875 C 13.011719 117.1875 14.0625 116.136719 14.0625 114.84375 L 14.0625 96.09375 L 18.75 96.09375 L 18.75 114.84375 C 18.75 116.136719 19.800781 117.1875 21.09375 117.1875 L 22.476562 117.1875 Z M 16.40625 123.257812 "/>
<path style=" stroke:none;fill-rule:nonzero;fill:rgb(0%,0%,0%);fill-opacity:1;" d="M 147.46875 85.828125 C 147.109375 84.953125 146.257812 84.378906 145.3125 84.375 L 140.625 84.375 L 140.625 65.625 C 140.625 64.332031 139.574219 63.28125 138.28125 63.28125 L 128.90625 63.28125 C 127.613281 63.28125 126.5625 64.332031 126.5625 65.625 L 126.5625 84.375 L 121.875 84.375 C 120.929688 84.378906 120.078125 84.953125 119.71875 85.828125 C 119.351562 86.699219 119.546875 87.707031 120.210938 88.382812 L 131.929688 100.101562 C 132.371094 100.546875 132.96875 100.792969 133.59375 100.792969 C 134.21875 100.792969 134.816406 100.546875 135.257812 100.101562 L 146.976562 88.382812 C 147.640625 87.707031 147.835938 86.699219 147.46875 85.828125 Z M 133.59375 95.203125 L 127.523438 89.0625 L 128.90625 89.0625 C 130.199219 89.0625 131.25 88.011719 131.25 86.71875 L 131.25 67.96875 L 135.9375 67.96875 L 135.9375 86.71875 C 135.9375 88.011719 136.988281 89.0625 138.28125 89.0625 L 139.664062 89.0625 Z M 133.59375 95.203125 "/>
<path style=" stroke:none;fill-rule:nonzero;fill:rgb(0%,0%,0%);fill-opacity:1;" d="M 9.375 67.96875 L 14.0625 67.96875 L 14.0625 86.71875 L 9.375 86.71875 Z M 9.375 67.96875 "/>
<path style=" stroke:none;fill-rule:nonzero;fill:rgb(0%,0%,0%);fill-opacity:1;" d="M 18.75 60.9375 L 23.4375 60.9375 L 23.4375 86.71875 L 18.75 86.71875 Z M 18.75 60.9375 "/>
<path style=" stroke:none;fill-rule:nonzero;fill:rgb(0%,0%,0%);fill-opacity:1;" d="M 135.9375 39.84375 L 140.625 39.84375 L 140.625 58.59375 L 135.9375 58.59375 Z M 135.9375 39.84375 "/>
<path style=" stroke:none;fill-rule:nonzero;fill:rgb(0%,0%,0%);fill-opacity:1;" d="M 126.5625 32.8125 L 131.25 32.8125 L 131.25 58.59375 L 126.5625 58.59375 Z M 126.5625 32.8125 "/>
</g>
</svg>
