<?xml version="1.0" encoding="UTF-8"?>
<svg xmlns="http://www.w3.org/2000/svg" xmlns:xlink="http://www.w3.org/1999/xlink" width="150pt" height="150pt" viewBox="0 0 150 150" version="1.1">
<g id="surface1">
<path style=" stroke:none;fill-rule:nonzero;fill:rgb(32.941176%,36.862745%,45.098039%);fill-opacity:1;" d="M 132.46875 21.425781 C 130.511719 9.472656 102.539062 0 68.300781 0 C 34.066406 0 6.09375 9.472656 4.136719 21.425781 L 4.019531 21.425781 L 4.019531 120.535156 L 4.136719 120.535156 C 6.09375 132.488281 34.074219 141.964844 68.300781 141.964844 C 102.535156 141.964844 130.511719 132.488281 132.46875 120.535156 L 132.589844 120.535156 L 132.589844 21.425781 Z M 132.46875 21.425781 "/>
<path style=" stroke:none;fill-rule:nonzero;fill:rgb(21.960784%,27.058824%,30.980392%);fill-opacity:1;" d="M 68.300781 109.824219 C 32.800781 109.824219 4.019531 99.628906 4.019531 87.050781 L 4.019531 120.535156 L 4.136719 120.535156 C 6.09375 132.488281 34.074219 141.964844 68.300781 141.964844 C 102.535156 141.964844 130.511719 132.488281 132.46875 120.535156 L 132.589844 120.535156 L 132.589844 87.050781 C 132.589844 99.628906 103.808594 109.824219 68.300781 109.824219 Z M 68.300781 109.824219 "/>
<path style=" stroke:none;fill-rule:nonzero;fill:rgb(21.960784%,27.058824%,30.980392%);fill-opacity:1;" d="M 4.019531 85.714844 L 4.019531 87.050781 C 4.019531 86.601562 4.066406 86.15625 4.136719 85.714844 Z M 4.019531 85.714844 "/>
<path style=" stroke:none;fill-rule:nonzero;fill:rgb(21.960784%,27.058824%,30.980392%);fill-opacity:1;" d="M 132.46875 85.714844 C 132.539062 86.15625 132.589844 86.601562 132.589844 87.050781 L 132.589844 85.714844 Z M 132.46875 85.714844 "/>
<path style=" stroke:none;fill-rule:nonzero;fill:rgb(33.333333%,37.647059%,50.196078%);fill-opacity:1;" d="M 68.300781 77.675781 C 32.800781 77.675781 4.019531 67.480469 4.019531 54.910156 L 4.019531 88.394531 L 4.136719 88.394531 C 6.09375 100.339844 34.074219 109.824219 68.300781 109.824219 C 102.535156 109.824219 130.511719 100.339844 132.46875 88.394531 L 132.589844 88.394531 L 132.589844 54.910156 C 132.589844 67.480469 103.808594 77.675781 68.300781 77.675781 Z M 68.300781 77.675781 "/>
<path style=" stroke:none;fill-rule:nonzero;fill:rgb(33.333333%,37.647059%,50.196078%);fill-opacity:1;" d="M 4.019531 53.574219 L 4.019531 54.910156 C 4.019531 54.464844 4.066406 54.019531 4.136719 53.574219 Z M 4.019531 53.574219 "/>
<path style=" stroke:none;fill-rule:nonzero;fill:rgb(33.333333%,37.647059%,50.196078%);fill-opacity:1;" d="M 132.46875 53.574219 C 132.539062 54.019531 132.589844 54.464844 132.589844 54.910156 L 132.589844 53.574219 Z M 132.46875 53.574219 "/>
<path style=" stroke:none;fill-rule:nonzero;fill:rgb(56.862745%,72.941176%,88.235294%);fill-opacity:1;" d="M 132.589844 22.769531 C 132.589844 10.195312 103.804688 0 68.300781 0 C 32.800781 0 4.019531 10.195312 4.019531 22.769531 C 4.019531 35.34375 32.800781 45.535156 68.300781 45.535156 C 103.804688 45.535156 132.589844 35.34375 132.589844 22.769531 Z M 132.589844 22.769531 "/>
<path style=" stroke:none;fill-rule:nonzero;fill:rgb(52.54902%,59.215686%,79.607843%);fill-opacity:1;" d="M 68.300781 45.535156 C 32.800781 45.535156 4.019531 35.34375 4.019531 22.769531 L 4.019531 56.25 L 4.136719 56.25 C 6.09375 68.199219 34.074219 77.675781 68.300781 77.675781 C 102.535156 77.675781 130.511719 68.199219 132.46875 56.25 L 132.589844 56.25 L 132.589844 22.769531 C 132.589844 35.34375 103.808594 45.535156 68.300781 45.535156 Z M 68.300781 45.535156 "/>
<path style=" stroke:none;fill-rule:nonzero;fill:rgb(52.54902%,59.215686%,79.607843%);fill-opacity:1;" d="M 4.019531 21.425781 L 4.019531 22.769531 C 4.019531 22.316406 4.066406 21.871094 4.136719 21.425781 Z M 4.019531 21.425781 "/>
<path style=" stroke:none;fill-rule:nonzero;fill:rgb(52.54902%,59.215686%,79.607843%);fill-opacity:1;" d="M 132.46875 21.425781 C 132.539062 21.871094 132.589844 22.316406 132.589844 22.769531 L 132.589844 21.425781 Z M 132.46875 21.425781 "/>
<path style=" stroke:none;fill-rule:nonzero;fill:rgb(14.901961%,72.54902%,60%);fill-opacity:1;" d="M 145.980469 117.855469 C 145.980469 135.609375 131.589844 150 113.839844 150 C 96.089844 150 81.699219 135.609375 81.699219 117.855469 C 81.699219 100.105469 96.089844 85.714844 113.839844 85.714844 C 131.589844 85.714844 145.980469 100.105469 145.980469 117.855469 Z M 145.980469 117.855469 "/>
<path style=" stroke:none;fill-rule:nonzero;fill:rgb(100%,100%,100%);fill-opacity:1;" d="M 131.4375 102.261719 C 130.21875 101.417969 128.554688 101.71875 127.710938 102.9375 L 112.722656 124.472656 L 102.144531 115.785156 C 101.003906 114.84375 99.308594 115.011719 98.371094 116.15625 C 97.433594 117.304688 97.597656 118.992188 98.746094 119.929688 L 111.566406 130.453125 C 112.050781 130.847656 112.652344 131.0625 113.269531 131.0625 C 113.386719 131.0625 113.507812 131.050781 113.628906 131.035156 C 114.375 130.933594 115.035156 130.527344 115.464844 129.914062 L 132.113281 105.996094 C 132.957031 104.785156 132.65625 103.113281 131.4375 102.261719 Z M 131.4375 102.261719 "/>
</g>
</svg>
